<?xml version="1.0" standalone="no"?>
<!DOCTYPE svg PUBLIC "-//W3C//DTD SVG 20010904//EN"
 "http://www.w3.org/TR/2001/REC-SVG-20010904/DTD/svg10.dtd">
<svg version="1.0" xmlns="http://www.w3.org/2000/svg"
 width="820.000000pt" height="726.000000pt" viewBox="0 0 820.000000 726.000000"
 preserveAspectRatio="xMidYMid meet">
<metadata>
Created by potrace 1.16, written by Peter Selinger 2001-2019
</metadata>
<g transform="translate(0.000000,726.000000) scale(0.100000,-0.100000)"
fill="#000000" stroke="none">
<path d="M233 7238 c-42 -53 -52 -249 -16 -329 l20 -46 84 -6 c321 -24 636
-258 768 -569 l26 -63 0 -2530 c0 -2358 -1 -2537 -17 -2634 -53 -315 -147
-451 -368 -531 -41 -15 -111 -35 -155 -44 -74 -15 -376 -56 -411 -56 -8 0 -24
-21 -36 -47 -30 -67 -29 -220 0 -287 l21 -46 1253 2 1253 3 18 37 c38 77 31
268 -11 317 -14 17 -42 23 -157 36 -384 43 -540 94 -647 213 -66 73 -114 187
-142 337 -34 186 -37 380 -34 2190 3 1943 0 1841 59 1874 22 12 31 13 59 1 50
-21 178 -153 372 -385 189 -226 195 -233 517 -615 118 -140 285 -338 371 -440
710 -843 2183 -2592 2380 -2825 42 -49 148 -175 235 -280 212 -254 273 -324
374 -427 l86 -88 321 0 322 0 68 30 67 31 -6 117 c-4 64 -15 243 -24 397 -16
256 -18 508 -18 2905 0 2481 1 2632 18 2744 66 435 210 559 726 625 89 12 175
21 191 21 25 0 33 7 52 43 30 57 32 218 5 290 l-19 47 -1256 -2 -1256 -3 -20
-34 c-15 -26 -19 -52 -19 -120 0 -102 16 -166 46 -185 12 -7 76 -19 142 -26
365 -36 551 -97 654 -215 69 -79 124 -230 153 -420 16 -109 24 -3656 8 -3716
-28 -105 -106 -104 -222 3 -25 24 -134 147 -240 273 -107 127 -299 354 -427
505 -129 151 -326 385 -440 519 -113 134 -359 424 -546 645 -187 221 -375 442
-417 491 -41 50 -232 275 -423 500 -191 226 -479 565 -640 755 -161 190 -375
442 -475 560 -101 118 -231 272 -289 342 l-106 127 -911 0 c-718 1 -914 -2
-921 -11z"/>
</g>
</svg>
